<svg xmlns="http://www.w3.org/2000/svg" width="19.173" height="20.308" viewBox="0 0 19.173 20.308">
  <path id="Icon_feather-github" data-name="Icon feather-github" d="M9.088,17.139C4.74,18.444,4.74,14.965,3,14.53m12.177,5.219V16.382a2.931,2.931,0,0,0-.818-2.27c2.731-.3,5.6-1.339,5.6-6.088a4.731,4.731,0,0,0-1.3-3.261,4.41,4.41,0,0,0-.079-3.28s-1.026-.3-3.4,1.287a11.638,11.638,0,0,0-6.088,0c-2.374-1.592-3.4-1.287-3.4-1.287a4.41,4.41,0,0,0-.078,3.279A4.732,4.732,0,0,0,4.3,8.05c0,4.714,2.87,5.749,5.6,6.088a2.931,2.931,0,0,0-.818,2.244v3.366" transform="translate(-1.787 -0.441)" fill="none" stroke="#fbfbfb" stroke-linecap="round" stroke-linejoin="round" stroke-width="2"/>
</svg>
